<svg xmlns="http://www.w3.org/2000/svg"  viewBox="0 0 64 64" width="128px" height="128px"><path fill="#f9e3ae" d="M58.837,33.717c0.441,1.094-0.04,2.341-1.116,2.824l-7.911,3.547L8.066,58.803 c-1.82,0.816-3.685-1.049-2.869-2.869L23.912,14.19l3.547-7.911c0.482-1.076,1.73-1.557,2.824-1.116 C43.255,10.39,53.61,20.745,58.837,33.717z"/><path fill="#efc88e" d="M58.837,33.717C53.61,20.745,43.255,10.39,30.283,5.163c-1.094-0.441-2.341,0.04-2.824,1.116 L26.436,8.56c0.116,0.026,0.233,0.057,0.347,0.102C39.755,13.89,50.11,24.245,55.337,37.217c0.046,0.114,0.076,0.23,0.102,0.347 l2.282-1.023C58.797,36.058,59.278,34.811,58.837,33.717z"/><path fill="#f9e3ae" d="M49.81,40.088L8.066,58.803c-1.82,0.816-3.685-1.049-2.869-2.869L23.912,14.19 C36.112,18.238,45.762,27.888,49.81,40.088z"/><path fill="#f7a1c8" d="M8.066,58.803c-1.82,0.816-3.685-1.049-2.869-2.869l3.963-8.84C13.027,47.657,16,50.977,16,55 c0,0.085-0.01,0.167-0.013,0.252L8.066,58.803z M34,36c-4.418,0-8,3.582-8,8c0,1.99,0.731,3.806,1.933,5.206l13.988-6.271 C41.399,39.021,38.056,36,34,36z M15.19,32.183C16.598,34.47,19.117,36,22,36c4.418,0,8-3.582,8-8s-3.582-8-8-8 c-0.481,0-0.949,0.05-1.407,0.131L15.19,32.183z"/><g><path fill="#8d6c9f" d="M59.764,33.343L59.764,33.343C54.452,20.158,43.843,9.549,30.657,4.235 c-1.603-0.643-3.408,0.071-4.11,1.634l-3.177,7.087l0,0L4.285,55.524c-0.543,1.212-0.287,2.602,0.652,3.54 c0.611,0.611,1.414,0.933,2.233,0.933c0.439,0,0.884-0.093,1.306-0.282l7.921-3.551l0.003-0.002L50.219,41c0,0,0,0,0,0l7.911-3.547 C59.693,36.753,60.411,34.947,59.764,33.343z M22,21c3.86,0,7,3.141,7,7s-3.14,7-7,7c-2.03,0-3.916-0.874-5.247-2.396l5.202-11.602 C21.97,21.001,21.985,21,22,21z M6.351,57.65c-0.134-0.135-0.547-0.624-0.241-1.308l3.637-8.112 c2.895,0.748,5.038,3.316,5.234,6.376l-7.324,3.284C6.973,58.196,6.485,57.783,6.351,57.65z M27,44c0-3.859,3.14-7,7-7 c3.46,0,6.415,2.566,6.914,5.98L28.64,48.483C27.586,47.223,27,45.638,27,44z M57.312,35.629l-6.921,3.103 c-0.246-0.68-0.504-1.358-0.786-2.027c-0.214-0.508-0.801-0.746-1.31-0.533c-0.509,0.215-0.748,0.802-0.533,1.311 c0.288,0.682,0.55,1.376,0.798,2.07l-5.768,2.586C41.924,38.026,38.26,35,34,35c-4.962,0-9,4.037-9,9 c0,1.92,0.623,3.786,1.758,5.327l-9.857,4.419c-0.494-3.456-2.989-6.351-6.331-7.352l5.303-11.827C17.528,36.12,19.69,37,22,37 c4.962,0,9-4.037,9-9c0-4.682-3.594-8.536-8.167-8.958l1.618-3.609c7.131,2.547,13.355,7.053,18.042,13.073 c0.339,0.435,0.967,0.514,1.403,0.175s0.514-0.968,0.175-1.403c-4.889-6.28-11.383-10.967-18.811-13.651l3.111-6.939 C28.565,6.256,28.992,6,29.447,6c0.153,0,0.31,0.029,0.462,0.091c12.684,5.11,22.889,15.316,28,28h0 C58.152,34.693,57.89,35.369,57.312,35.629z"/><path fill="#8d6c9f" d="M46.398 30.581c-.295-.465-.914-.605-1.38-.309-.466.296-.604.914-.309 1.381.514.81 1.006 1.651 1.463 2.502.18.337.525.527.882.527.16 0 .321-.038.472-.119.486-.261.669-.867.408-1.354C47.455 32.316 46.938 31.433 46.398 30.581zM31.683 8.96c-.495-.244-1.095-.041-1.339.454l-.885 1.794c-.244.495-.041 1.095.455 1.339.142.07.293.104.441.104.369 0 .724-.204.898-.558l.885-1.794C32.381 9.804 32.178 9.204 31.683 8.96zM36.066 11.383c-.471-.289-1.086-.143-1.376.327l-1.049 1.703c-.29.47-.143 1.086.327 1.376.164.101.345.148.523.148.335 0 .664-.169.853-.476l1.049-1.703C36.683 12.289 36.536 11.673 36.066 11.383zM38.805 14.4l-1.204 1.597c-.333.44-.245 1.067.196 1.4.18.136.392.201.601.201.303 0 .603-.138.799-.398l1.204-1.597c.333-.44.245-1.067-.196-1.4C39.763 13.87 39.136 13.959 38.805 14.4zM44.064 17.395c-.408-.373-1.041-.341-1.413.065l-1.347 1.479c-.372.408-.342 1.041.066 1.413.191.175.433.261.673.261.272 0 .542-.11.74-.326l1.347-1.479C44.502 18.399 44.472 17.767 44.064 17.395zM45.388 23.956c.24 0 .481-.086.673-.261l1.479-1.347c.408-.372.438-1.004.066-1.413-.372-.407-1.004-.438-1.413-.065l-1.479 1.347c-.408.372-.438 1.004-.066 1.413C44.846 23.846 45.116 23.956 45.388 23.956zM50.797 24.795c-.333-.44-.959-.529-1.401-.197l-1.598 1.204c-.441.333-.529.96-.197 1.4.197.261.497.398.8.398.209 0 .421-.065.601-.201l1.598-1.204C51.042 25.862 51.129 25.235 50.797 24.795zM53.617 28.935c-.29-.47-.905-.616-1.376-.327l-1.703 1.049c-.47.29-.617.906-.327 1.376.189.307.517.476.853.476.179 0 .36-.048.523-.148l1.703-1.049C53.76 30.021 53.907 29.404 53.617 28.935zM54.701 32.863l-1.793.885c-.495.244-.699.844-.455 1.339.174.354.529.558.898.558.148 0 .299-.033.441-.104l1.793-.885c.495-.244.699-.844.455-1.339S55.196 32.619 54.701 32.863z"/></g></svg>