<svg xmlns="http://www.w3.org/2000/svg"  viewBox="0 0 64 64" width="128px" height="128px"><path fill="#85cbf8" d="M35,54.057H25c-2.209,0-4,1.791-4,4v0h18v0C39,55.847,37.209,54.057,35,54.057z"/><path fill="#8d6c9f" d="M39,59.057H21c-0.552,0-1-0.447-1-1c0-2.757,2.243-5,5-5h10c2.757,0,5,2.243,5,5 C40,58.609,39.552,59.057,39,59.057z M22.171,57.057h15.657c-0.413-1.164-1.525-2-2.829-2H25 C23.696,55.057,22.584,55.893,22.171,57.057z"/><path fill="#85cbf8" d="M30,54.057L30,54.057c-6.276,0-11.563-4.69-12.311-10.922L13.134,9.176 c-0.071-0.595,0.393-1.119,0.993-1.119h31.746c0.6,0,1.064,0.524,0.993,1.119l-4.555,33.959C41.563,49.367,36.276,54.057,30,54.057 z"/><path fill="#cda1a7" d="M42.311,43.135l3.969-29.078H13.72l3.969,29.078C18.437,49.367,23.724,54.057,30,54.057 S41.563,49.367,42.311,43.135z"/><path fill="#efd8be" d="M45.44 19.057L46.28 14.057 13.72 14.057 14.56 19.057z"/><path fill="#c4939c" d="M40.608,48.057H19.392c2.185,3.617,6.141,6,10.608,6S38.424,51.674,40.608,48.057z"/><path fill="#8d6c9f" d="M30,55.057c-6.777,0-12.496-5.074-13.303-11.803L12.143,9.309c-0.07-0.582,0.109-1.152,0.488-1.58 c0.379-0.427,0.924-0.672,1.496-0.672h31.746c0.571,0,1.116,0.245,1.496,0.672c0.379,0.428,0.558,0.998,0.49,1.566l-4.557,33.973 C42.496,49.982,36.777,55.057,30,55.057z M45.875,9.043L14.127,9.057l4.554,33.945C19.369,48.74,24.234,53.057,30,53.057 s10.631-4.316,11.318-10.041L45.875,9.043z"/><path fill="#8d6c9f" d="M35 15.057H14c-.552 0-1-.447-1-1s.448-1 1-1h21c.552 0 1 .447 1 1S35.552 15.057 35 15.057zM43 15.057h-4c-.552 0-1-.447-1-1s.448-1 1-1h4c.552 0 1 .447 1 1S43.552 15.057 43 15.057zM25 50.057c-.552 0-1-.447-1-1v-2c0-.553.448-1 1-1s1 .447 1 1v2C26 49.609 25.552 50.057 25 50.057zM30 50.057c-.552 0-1-.447-1-1v-2c0-.553.448-1 1-1s1 .447 1 1v2C31 49.609 30.552 50.057 30 50.057zM35 50.057c-.552 0-1-.447-1-1v-2c0-.553.448-1 1-1s1 .447 1 1v2C36 49.609 35.552 50.057 35 50.057zM43 41.057c-.552 0-1-.447-1-1s.448-1 1-1c2.261 0 11-7.291 11-14 0-2.43-1.57-4-4-4-1.565 0-3.029 1.39-4.278 2.692-.382.397-1.016.41-1.414.029-.398-.382-.412-1.016-.029-1.414 1.648-1.718 3.481-3.308 5.722-3.308 3.533 0 6 2.468 6 6C56 32.517 46.772 41.057 43 41.057z"/></svg>