<svg xmlns="http://www.w3.org/2000/svg"  viewBox="0 0 64 64" width="128px" height="128px"><path fill="#faefde" d="M32,61A29,29,0,1,1,61,32,29,29,0,0,1,32,61Z"/><path fill="#efd8be" d="M7.33,32a4,4,0,0,0-4,4.63,29,29,0,0,0,57.26,0,4,4,0,0,0-4-4.63Z"/><path fill="#faefde" d="M55,32A23,23,0,0,1,32,55a23.48,23.48,0,0,1-4.55-.45,22.85,22.85,0,0,1-10.13-4.87,20.94,20.94,0,0,1-2.07-1.93,23.44,23.44,0,0,1-2.63-3.37A22.93,22.93,0,0,1,11.2,41.8a20.69,20.69,0,0,1-1.35-3.65A22.33,22.33,0,0,1,9,32,23,23,0,0,1,32,9a22.33,22.33,0,0,1,6.15.85A20.7,20.7,0,0,1,41.8,11.2a22.93,22.93,0,0,1,2.58,1.42,23.42,23.42,0,0,1,3.37,2.63,20.92,20.92,0,0,1,1.93,2.07,22.84,22.84,0,0,1,4.87,10.13A23.48,23.48,0,0,1,55,32Z"/><path fill="#fff7f0" d="M54.55 27.45l-27.1 27.1a22.85 22.85 0 0 1-10.13-4.87L49.68 17.32A22.84 22.84 0 0 1 54.55 27.45zM47.75 15.25l-32.5 32.5a23.44 23.44 0 0 1-2.63-3.37L44.38 12.62A23.42 23.42 0 0 1 47.75 15.25zM41.8 11.2L11.2 41.8a20.69 20.69 0 0 1-1.35-3.65l28.3-28.3A20.7 20.7 0 0 1 41.8 11.2z"/><path fill="#f9e3ae" d="M27.54 60.68L24 59.54 21.07 58.59 22.01 45.01 24 45.73 26.95 46.8 27.54 60.68z"/><path fill="#f6d397" d="M24 45.73L24 59.54 21.07 58.59 22.01 45.01 24 45.73z"/><path fill="#f9e3ae" d="M43.55 58.67L40 59.68 36.49 60.68 37.73 43.02 42.19 43.02 43.55 58.67z"/><path fill="#f6d397" d="M40 43.02L40 59.68 36.49 60.68 37.73 43.02 40 43.02z"/><path fill="#d6dff2" d="M35.16 20.13L44.83 20.13 47.69 33.16 42.19 39.93 42.19 43.02 38.26 43.02 37.73 39.62 32 34.21 35.16 20.13zM26 19.54c-4.83 1.2-8.58 5-8.82 9.85s0 13.75 0 13.75L26.6 46.8l.35-26.69z"/><path fill="#8d6c9f" d="M32,2A30,30,0,1,0,62,32,30,30,0,0,0,32,2ZM20,41H18V38h2a1,1,0,0,0,0-2H18V33h2a1,1,0,0,0,0-2H18a11.08,11.08,0,0,1,.45-3H20a1,1,0,0,0,0-2h-.74a11,11,0,0,1,5.65-5.09L26,20.48v25L19.69,43H20a1,1,0,0,0,0-2Zm2.42,17,.51-11.52L26,47.69l.57,11.78a27.76,27.76,0,0,1-4.25-1.19A1,1,0,0,0,22.42,58Zm6.18,1.81s0,0,0,0l-.19-4A24.17,24.17,0,0,0,36,55.67l-.27,4.08a27.22,27.22,0,0,1-7.09,0ZM38,33a1,1,0,0,0,1-1V21h2V32a1,1,0,0,0,2,0V21h1.18l2.37,11.82a3,3,0,0,1-1,2.88l-4.19,3.54,0,.06a1.07,1.07,0,0,0-.3.7s0,0,0,.07L41.13,42H38.87L39,40.07s0,0,0-.07a1,1,0,0,0,0-.2,1.08,1.08,0,0,0-.27-.5l0-.05-4.23-3.66a3,3,0,0,1-1-2.86L35.82,21H37V32A1,1,0,0,0,38,33Zm.74,11h2.52l.93,14.07a27.74,27.74,0,0,1-4.46,1.34Zm5.4,13.23-.29-4.37a24,24,0,0,0,2.94-39.76,1,1,0,0,0-1.23,1.57,22,22,0,0,1-1.85,36L43,40.44l3.81-3.21a5,5,0,0,0,1.68-4.81L46.14,20.61a2,2,0,0,0-2-1.61H35.82a2,2,0,0,0-2,1.6L31.48,32.32a5,5,0,0,0,1.63,4.77L37,40.43l-.86,13.18a22.38,22.38,0,0,1-7.78.08L28,47V20.48a2,2,0,0,0-2.74-1.86l-1.08.43A12.94,12.94,0,0,0,16,31.12V41.65a3,3,0,0,0,1.89,2.79L21,45.67l-.23,5.23A22,22,0,0,1,32,10a22.26,22.26,0,0,1,3.5.28,1,1,0,0,0,.32-2A24,24,0,0,0,8,32,23.93,23.93,0,0,0,20.64,53.13l-.19,4.36a28,28,0,1,1,23.69-.26Z"/><path fill="#8d6c9f" d="M43.06,10.7A23.9,23.9,0,0,0,40.4,9.51a1,1,0,0,0-.7,1.87,21.81,21.81,0,0,1,2.44,1.08,1,1,0,1,0,.92-1.77Z"/></svg>