<svg xmlns="http://www.w3.org/2000/svg"  viewBox="0 0 64 64" width="128px" height="128px" baseProfile="basic"><polygon fill="#efc88e" points="57,57 7,57 7,7 10.53,10.53 21.16,21.16"/><polyline fill="#f9e3ae" points="12,12 12,52 52,52"/><path fill="#97e0bb" d="M53.848,53.848C54.576,52.744,55,51.421,55,50c0-2.738-1.576-5.102-3.866-6.253 C52.289,42.499,53,40.835,53,39c0-3.3-2.286-6.059-5.359-6.798C47.871,31.509,48,30.77,48,30c0-3.866-3.134-7-7-7 c-0.027,0-0.053,0.004-0.08,0.004C40.967,22.675,41,22.342,41,22c0-3.866-3.134-7-7-7c-0.77,0-1.509,0.129-2.202,0.359 C31.059,12.286,28.3,10,25,10c-2.019,0-3.833,0.86-5.11,2.227C18.645,10.288,16.475,9,14,9c-1.421,0-2.744,0.424-3.848,1.151 L53.848,53.848z"/><path fill="#ed7899" d="M19.432,19.432C20.727,18.529,22.302,18,24,18c4.418,0,8,3.582,8,8c0,1.698-0.529,3.273-1.432,4.568"/><path fill="#ed7899" d="M33.432,33.432C34.727,32.529,36.302,32,38,32c4.418,0,8,3.582,8,8c0,1.698-0.529,3.273-1.432,4.568"/><g><path fill="#8d6c9f" d="M43,54c0.552,0,1-0.447,1-1v-2c0-0.553-0.448-1-1-1s-1,0.447-1,1v2C42,53.553,42.448,54,43,54z"/><path fill="#8d6c9f" d="M38,54c0.552,0,1-0.447,1-1v-2c0-0.553-0.448-1-1-1s-1,0.447-1,1v2C37,53.553,37.448,54,38,54z"/><path fill="#8d6c9f" d="M33,54c0.552,0,1-0.447,1-1v-2c0-0.553-0.448-1-1-1s-1,0.447-1,1v2C32,53.553,32.448,54,33,54z"/><path fill="#8d6c9f" d="M28,54c0.552,0,1-0.447,1-1v-2c0-0.553-0.448-1-1-1s-1,0.447-1,1v2C27,53.553,27.448,54,28,54z"/><path fill="#8d6c9f" d="M23,54c0.552,0,1-0.447,1-1v-2c0-0.553-0.448-1-1-1s-1,0.447-1,1v2C22,53.553,22.448,54,23,54z"/><path fill="#8d6c9f" d="M18,54c0.552,0,1-0.447,1-1v-2c0-0.553-0.448-1-1-1s-1,0.447-1,1v2C17,53.553,17.448,54,18,54z"/><path fill="#8d6c9f" d="M11,54c0.256,0,0.512-0.098,0.707-0.293l2-2c0.391-0.391,0.391-1.023,0-1.414s-1.023-0.391-1.414,0 l-2,2c-0.391,0.391-0.391,1.023,0,1.414C10.488,53.902,10.744,54,11,54z"/><path fill="#8d6c9f" d="M11,47h2c0.552,0,1-0.447,1-1s-0.448-1-1-1h-2c-0.552,0-1,0.447-1,1S10.448,47,11,47z"/><path fill="#8d6c9f" d="M11,42h2c0.552,0,1-0.447,1-1s-0.448-1-1-1h-2c-0.552,0-1,0.447-1,1S10.448,42,11,42z"/><path fill="#8d6c9f" d="M11,37h2c0.552,0,1-0.447,1-1s-0.448-1-1-1h-2c-0.552,0-1,0.447-1,1S10.448,37,11,37z"/><path fill="#8d6c9f" d="M11,32h2c0.552,0,1-0.447,1-1s-0.448-1-1-1h-2c-0.552,0-1,0.447-1,1S10.448,32,11,32z"/><path fill="#8d6c9f" d="M11,27h2c0.552,0,1-0.447,1-1s-0.448-1-1-1h-2c-0.552,0-1,0.447-1,1S10.448,27,11,27z"/><path fill="#8d6c9f" d="M11,22h2c0.552,0,1-0.447,1-1s-0.448-1-1-1h-2c-0.552,0-1,0.447-1,1S10.448,22,11,22z"/></g><path fill="#8d6c9f" d="M57.707,56.293l-2.619-2.619C55.677,52.542,56,51.292,56,50c0-2.631-1.269-5.037-3.377-6.523	C53.517,42.159,54,40.607,54,39c0-3.362-2.073-6.305-5.149-7.471C48.95,31.024,49,30.513,49,30c0-4.052-3.027-7.409-7-7.927	c0-0.024,0-0.049,0-0.073c0-4.411-3.589-8-8-8c-0.513,0-1.024,0.05-1.53,0.149C31.305,11.073,28.363,9,25,9	c-1.808,0-3.566,0.625-4.975,1.744C18.517,9.008,16.337,8,14,8c-1.291,0-2.542,0.324-3.674,0.912L7.707,6.293	C7.42,6.007,6.99,5.918,6.617,6.076C6.244,6.23,6,6.596,6,7v50c0,0.553,0.448,1,1,1h50c0.404,0,0.769-0.243,0.924-0.617	S57.993,56.579,57.707,56.293z M14,10c2.049,0,3.936,1.034,5.048,2.767c0.167,0.26,0.444,0.428,0.751,0.456	c0.307,0.026,0.61-0.089,0.821-0.313C21.771,11.678,23.327,11,25,11c2.779,0,5.175,1.889,5.826,4.593	c0.065,0.271,0.242,0.504,0.486,0.64s0.534,0.164,0.8,0.075C32.729,16.104,33.364,16,34,16c3.309,0,6,2.691,6,6	c0,0.258-0.022,0.531-0.07,0.861c-0.042,0.287,0.084,0.576,0.274,0.795C40.394,23.876,40.71,24,41,24c3.309,0,6,2.691,6,6	c0,0.636-0.104,1.271-0.308,1.887c-0.088,0.266-0.061,0.556,0.075,0.8c0.136,0.245,0.368,0.421,0.64,0.487	C50.111,33.825,52,36.221,52,39c0,1.508-0.568,2.953-1.6,4.068c-0.213,0.23-0.306,0.548-0.25,0.857s0.254,0.574,0.535,0.715	C52.73,45.668,54,47.722,54,50c0,0.75-0.153,1.479-0.42,2.166l-7.759-7.759C46.58,43.063,47,41.562,47,40c0-4.963-4.038-9-9-9	c-1.563,0-3.063,0.42-4.407,1.179l-1.772-1.772C32.58,29.063,33,27.562,33,26c0-4.963-4.038-9-9-9c-1.563,0-3.063,0.42-4.407,1.179	l-7.76-7.76C12.521,10.153,13.25,10,14,10z M44.347,42.933l-9.28-9.28C35.981,33.229,36.974,33,38,33c3.86,0,7,3.141,7,7	C45,41.026,44.77,42.019,44.347,42.933z M30.347,28.933l-9.28-9.28C21.981,19.229,22.974,19,24,19c3.86,0,7,3.141,7,7	C31,27.026,30.77,28.019,30.347,28.933z M8,56V9.414L54.586,56H8z"/></svg>